<svg xmlns="http://www.w3.org/2000/svg" version="1.1" viewBox="36.7226862 48.99199812834225 499.272 107.15775401069519" style="max-height: 500px" width="499.272" height="107.15775401069519">
<path transform="translate(455.6875,80.25)" fill="#C70376" d="M0 0 C0.763125 0.5775 1.52625 1.155 2.3125 1.75 C2.9725 -0.56 3.6325 -2.87 4.3125 -5.25 C6.95840014 -5.27684679 9.60403096 -5.29676357 12.25 -5.3125 C13.00474609 -5.32087891 13.75949219 -5.32925781 14.53710938 -5.33789062 C16.46244313 -5.34652441 18.38785581 -5.30224333 20.3125 -5.25 C21.98585996 -3.57664004 21.43212895 -1.53612091 21.43692017 0.69747925 C21.43152725 1.75807053 21.43152725 1.75807053 21.42602539 2.84008789 C21.42617142 3.58150528 21.42631744 4.32292267 21.4264679 5.08680725 C21.42576865 7.54878621 21.41797574 10.01069043 21.41015625 12.47265625 C21.40829211 14.17516539 21.40686819 15.87767507 21.40586853 17.58018494 C21.40204302 22.06993073 21.39221247 26.55964438 21.38116455 31.04937744 C21.37095113 35.62731491 21.36637106 40.20525756 21.36132812 44.78320312 C21.35059022 53.77214957 21.33351341 62.76107212 21.3125 71.75 C19.27170995 71.9468121 17.22979993 72.13202831 15.1875 72.3125 C13.48207031 72.46912109 13.48207031 72.46912109 11.7421875 72.62890625 C8.42352007 72.74608016 5.5562314 72.4155072 2.3125 71.75 C2.6425 69.44 2.9725 67.13 3.3125 64.75 C2.59964844 65.23210937 1.88679688 65.71421875 1.15234375 66.2109375 C-8.36954539 72.49051446 -16.11735853 75.17039949 -27.4921875 73.28515625 C-37.56254774 70.92796666 -44.74550834 65.13529237 -50.6875 56.75 C-54.40693323 50.25300552 -56.48547691 44.22485434 -56.6875 36.75 C-56.73777344 36.04488281 -56.78804688 35.33976562 -56.83984375 34.61328125 C-57.35439898 23.1489907 -53.56032086 12.20514697 -45.8359375 3.71484375 C-32.92157182 -8.40202126 -14.81025551 -9.71164296 0 0 Z M-32.9375 17.125 C-37.76014434 23.16904512 -39.16884439 29.6767829 -38.44140625 37.34375 C-37.31916496 43.93815901 -35.24897181 48.44467537 -30.1875 53 C-24.15967807 57.21947535 -18.98212238 57.66650384 -11.6875 56.75 C-5.6271145 54.38449469 -1.5204651 50.2229865 1.5 44.5 C4.05500362 35.85229543 3.82378333 27.50350059 -0.4375 19.4375 C-3.67354977 15.57221834 -6.80581646 12.37722785 -11.6875 10.75 C-20.50056422 10.08870225 -26.7555506 10.33668715 -32.9375 17.125 Z"/>
<path transform="translate(337,50)" fill="#C50676" d="M0 0 C0.33 9.9 0.66 19.8 1 30 C4.3 28.35 7.6 26.7 11 25 C21.10248685 22.97950263 30.83476201 23.46235433 39.75 29.125 C47.13147262 34.97446887 50.23229548 43.00383495 52 52 C52.3648968 56.00164544 52.37608801 59.96069693 52.328125 63.9765625 C52.32625183 65.06842865 52.32437866 66.1602948 52.32244873 67.2852478 C52.31577756 69.56926576 52.30196302 71.85327326 52.28125 74.13720703 C52.24977446 77.65017184 52.24024075 81.16268865 52.234375 84.67578125 C52.22521662 86.9010472 52.2148446 89.12630856 52.203125 91.3515625 C52.19887512 92.40558258 52.19462524 93.45960266 52.19024658 94.54556274 C52.18063904 95.5110202 52.17103149 96.47647766 52.16113281 97.47119141 C52.15430481 98.32403717 52.14747681 99.17688293 52.14044189 100.05557251 C52 102 52 102 51 103 C48.13732433 103.07325168 45.299281 103.09238205 42.4375 103.0625 C41.63119141 103.05798828 40.82488281 103.05347656 39.99414062 103.04882812 C37.99606244 103.03700518 35.99802217 103.01906914 34 103 C33.16472768 100.08221711 32.87160346 97.48125874 32.8581543 94.45019531 C32.85111984 93.55536438 32.84408539 92.66053345 32.83683777 91.73858643 C32.83267349 90.77813416 32.82850922 89.81768188 32.82421875 88.828125 C32.80101652 86.78123976 32.77689903 84.73436473 32.75195312 82.6875 C32.71689125 79.47063394 32.68751731 76.254143 32.67407227 73.03710938 C32.65853246 69.9253223 32.61828247 66.8146223 32.57421875 63.703125 C32.57612717 62.75076965 32.57803558 61.79841431 32.58000183 60.81719971 C32.47154675 54.84928893 31.63424258 49.89004196 28 45 C22.89025874 41.79388783 17.88317422 41.2270282 12 42 C6.79411428 43.76803666 4.63155169 46.22422101 2 51 C1.06243357 53.98628874 0.85217838 56.73888779 0.79467773 59.86035156 C0.77473251 60.82104553 0.75478729 61.7817395 0.73423767 62.77154541 C0.71752518 63.80084167 0.70081268 64.83013794 0.68359375 65.890625 C0.66281265 66.95037537 0.64203156 68.01012573 0.62062073 69.10198975 C0.55527814 72.48459438 0.49631119 75.86727612 0.4375 79.25 C0.39430025 81.54427878 0.35068549 83.83854979 0.30664062 86.1328125 C0.19961235 91.75512948 0.09830167 97.37752395 0 103 C-5.94 103 -11.88 103 -18 103 C-18.24936771 91.9943391 -18.45079797 80.9905795 -18.56993389 69.98272324 C-18.62713897 64.87021988 -18.70460969 59.75976305 -18.82983398 54.6484375 C-18.95011485 49.70748318 -19.01527991 44.76848574 -19.04364967 39.8261795 C-19.06384225 37.94900981 -19.10327653 36.07193711 -19.16303062 34.19561005 C-19.6585013 17.97979752 -19.6585013 17.97979752 -14.23343372 11.59921646 C-11.94939506 9.24201306 -9.50726026 7.11577245 -7 5 C-6.09775192 4.0705658 -5.19550385 3.14113159 -4.26591492 2.18353271 C-2 0 -2 0 0 0 Z"/>
<path transform="translate(149.26611328125,55.886474609375)" fill="#C60475" d="M0 0 C1.32114304 0.0001133 1.32114304 0.0001133 2.66897583 0.00022888 C3.62109955 0.00539017 4.57322327 0.01055145 5.55419922 0.01586914 C7.01489334 0.01799156 7.01489334 0.01799156 8.50509644 0.02015686 C11.62305745 0.02576566 14.74094732 0.03831966 17.85888672 0.05102539 C19.96956277 0.05603926 22.08023994 0.06060236 24.19091797 0.06469727 C29.37193193 0.07573794 34.55290424 0.09248466 39.73388672 0.11352539 C40.59484997 14.01569028 40.59484997 14.01569028 37.60888672 17.82446289 C36.66013672 18.70360352 35.71138672 19.58274414 34.73388672 20.48852539 C34.23783936 20.96837891 33.74179199 21.44823242 33.23071289 21.94262695 C32.23206391 22.90413411 31.21940466 23.85133059 30.19238281 24.7824707 C28.06065968 26.72792676 26.06295359 28.79989323 24.04638672 30.86352539 C22.94488846 31.94957177 21.84187946 33.03410553 20.73388672 34.11352539 C21.94625 34.69360352 21.94625 34.69360352 23.18310547 35.28540039 C24.25173828 35.80618164 25.32037109 36.32696289 26.42138672 36.86352539 C27.47712891 37.37399414 28.53287109 37.88446289 29.62060547 38.41040039 C36.45902896 42.15136983 40.66835702 46.81128937 43.49169922 54.05883789 C46.00555338 62.80421787 45.37014204 71.79235686 41.73388672 80.11352539 C37.56100184 87.14218988 32.03946403 92.9000196 24.12841797 95.54711914 C12.38788748 98.32424299 1.07276009 97.47762671 -9.26611328 91.11352539 C-15.64037958 86.86401452 -19.20106731 81.02742715 -20.83251953 73.50024414 C-21.14111328 71.05102539 -21.14111328 71.05102539 -21.26611328 67.11352539 C-20.26611328 66.11352539 -20.26611328 66.11352539 -16.66845703 66.01586914 C-15.18014461 66.02254319 -13.69184896 66.03450356 -12.20361328 66.05102539 C-11.445 66.05553711 -10.68638672 66.06004883 -9.90478516 66.06469727 C-8.02519457 66.07651859 -6.14564429 66.09445461 -4.26611328 66.11352539 C-4.02376953 66.71680664 -3.78142578 67.32008789 -3.53173828 67.94165039 C-1.35827818 73.12451678 0.46950769 77.48133588 5.73388672 80.11352539 C11.70508699 80.67198297 16.63731562 80.59411053 21.73388672 77.11352539 C25.65370374 72.92337616 26.05034349 68.86310856 25.94482422 63.20727539 C25.58928629 59.67823224 24.52243969 57.15406544 22.73388672 54.11352539 C17.61080742 50.71678795 12.8638442 50.6144821 6.92138672 50.48852539 C5.2064227 50.43774925 3.49156295 50.38326814 1.77685547 50.32446289 C1.02428467 50.30689941 0.27171387 50.28933594 -0.50366211 50.27124023 C-2.26611328 50.11352539 -2.26611328 50.11352539 -3.26611328 49.11352539 C-4.11500784 44.29145422 -4.24902069 39.91735267 -1.86767578 35.54711914 C2.72732029 29.70490986 8.17697186 24.52902479 13.51123047 19.36352539 C15.76005982 17.31986432 15.76005982 17.31986432 16.73388672 15.11352539 C16.22180664 15.27651123 15.70972656 15.43949707 15.18212891 15.60742188 C11.94015578 16.27760639 8.87251609 16.22474928 5.56201172 16.21118164 C4.53838531 16.20905922 4.53838531 16.20905922 3.49407959 16.20689392 C1.32396988 16.20131623 -0.84603498 16.18876793 -3.01611328 16.17602539 C-4.4913722 16.1710075 -5.96663275 16.1664451 -7.44189453 16.16235352 C-11.05000126 16.15135414 -14.65804703 16.13410492 -18.26611328 16.11352539 C-18.26611328 13.11352539 -18.26611328 13.11352539 -15.71142578 10.23071289 C-14.61228853 9.14222104 -13.50514481 8.06176858 -12.39111328 6.98852539 C-11.83552734 6.4380957 -11.27994141 5.88766602 -10.70751953 5.32055664 C-6.97593705 1.66090828 -5.18628713 -0.01481796 0 0 Z"/>
<path transform="translate(294.375,80.125)" fill="#C70476" d="M0 0 C6.12552021 4.64830472 10.15075923 10.61264515 12.625 17.875 C12.625 19.195 12.625 20.515 12.625 21.875 C9.54238544 22.0496397 6.46104167 22.15594067 3.375 22.25 C2.50230469 22.30027344 1.62960937 22.35054687 0.73046875 22.40234375 C-1.76977544 22.45960125 -3.93654458 22.43894061 -6.375 21.875 C-8.83203125 18.99609375 -8.83203125 18.99609375 -10.375 15.875 C-14.77259473 11.70292295 -17.87963668 11.10605216 -23.75 10.5625 C-29.3543183 11.04563089 -32.75587397 13.25587397 -36.6875 17.1875 C-41.41877324 24.72249071 -41.5090842 33.91219794 -39.875 42.50390625 C-38.21862957 48.06592286 -35.60820028 52.85338441 -30.55078125 56.015625 C-25.34114656 58.07329041 -19.26313384 57.43444706 -14 55.875 C-11.2738673 53.79794651 -10.76049122 52.75640977 -9.32421875 49.78125 C-7.78128364 47.24183597 -7.07220789 46.0832893 -4.19140625 45.22265625 C-1.60755529 45.08731168 0.8581666 45.17496221 3.4375 45.375 C4.32115234 45.41109375 5.20480469 45.4471875 6.11523438 45.484375 C8.28702972 45.57829047 10.45658115 45.72178493 12.625 45.875 C11.22530826 55.4690036 7.12280592 61.71804259 -0.375 67.875 C-9.51456709 73.86177069 -19.6848102 74.81998915 -30.375 73.875 C-41.32855704 71.41917065 -48.77642505 65.73437647 -54.90234375 56.46875 C-60.77428931 46.12664959 -62.04487375 33.66542507 -59.1875 22.1875 C-55.62872225 10.60894141 -49.0564441 2.6380117 -38.375 -3.125 C-25.67927225 -8.09208764 -11.60424184 -7.509652 0 0 Z"/>
<path transform="translate(128,56)" fill="#C60676" d="M0 0 C0 0.99 0 1.98 0 3 C-1.65191491 4.35156675 -3.32294092 5.679762 -5 7 C-7.41239939 9.6003126 -9.7011538 12.29947369 -12 15 C-13 16 -13 16 -15.31665039 16.11352539 C-16.31688232 16.10828857 -17.31711426 16.10305176 -18.34765625 16.09765625 C-19.42724609 16.09443359 -20.50683594 16.09121094 -21.61914062 16.08789062 C-22.75544922 16.07951172 -23.89175781 16.07113281 -25.0625 16.0625 C-26.20267578 16.05798828 -27.34285156 16.05347656 -28.51757812 16.04882812 C-31.34510351 16.03699747 -34.1725264 16.0205141 -37 16 C-36.94670532 17.12245117 -36.94670532 17.12245117 -36.89233398 18.26757812 C-35.71515373 44.53893978 -36.27126879 70.72106037 -37 97 C-42.94 97 -48.88 97 -55 97 C-56.09689084 56.61091243 -56.09689084 56.61091243 -56.125 41.3125 C-56.12951172 40.35037598 -56.13402344 39.38825195 -56.13867188 38.39697266 C-56.12289796 30.90304896 -55.6007057 23.46777076 -55 16 C-56.35532837 16.05329468 -56.35532837 16.05329468 -57.73803711 16.10766602 C-61.07937816 16.23661797 -64.42082359 16.36097487 -67.76245117 16.48217773 C-69.21076301 16.53566237 -70.65900775 16.59099659 -72.10717773 16.64819336 C-74.18458582 16.72992512 -76.2621417 16.80507768 -78.33984375 16.87890625 C-79.59144287 16.9260376 -80.84304199 16.97316895 -82.13256836 17.02172852 C-85 17 -85 17 -86 16 C-86.09932392 13.68925832 -86.12969618 11.37537058 -86.125 9.0625 C-86.12757812 7.79535156 -86.13015625 6.52820312 -86.1328125 5.22265625 C-86 2 -86 2 -85 0 C-74.21276246 -0.15365972 -63.42546508 -0.30184149 -52.6380558 -0.4429636 C-47.62943009 -0.50866059 -42.62084515 -0.57626875 -37.61230469 -0.64819336 C-32.78187547 -0.71749075 -27.95140369 -0.78183492 -23.12086105 -0.84269524 C-21.27479009 -0.86683424 -19.42874187 -0.89278031 -17.58272171 -0.92053413 C-15.00391448 -0.95900105 -12.42510232 -0.99113352 -9.84619141 -1.02172852 C-8.69281029 -1.04114754 -8.69281029 -1.04114754 -7.51612854 -1.06095886 C-2.22810432 -1.11405216 -2.22810432 -1.11405216 0 0 Z"/>
<path transform="translate(496,57)" fill="#C70476" d="M0 0 C2.949375 -0.020625 5.89875 -0.04125 8.9375 -0.0625 C9.86812256 -0.071604 10.79874512 -0.08070801 11.75756836 -0.09008789 C12.48596924 -0.09258545 13.21437012 -0.09508301 13.96484375 -0.09765625 C14.7137085 -0.10289307 15.46257324 -0.10812988 16.23413086 -0.11352539 C18 0 18 0 19 1 C19.08631874 2.34267413 19.10706473 3.68974322 19.09765625 5.03515625 C19.09443359 5.84404297 19.09121094 6.65292969 19.08789062 7.48632812 C19.07951172 8.33646484 19.07113281 9.18660156 19.0625 10.0625 C19.05798828 10.91650391 19.05347656 11.77050781 19.04882812 12.65039062 C19.03700373 14.76695663 19.01906769 16.88348685 19 19 C19.87011719 18.83757812 20.74023438 18.67515625 21.63671875 18.5078125 C24.75665866 18.03674143 27.66225021 17.86638099 30.8125 17.875 C32.24529297 17.87113281 32.24529297 17.87113281 33.70703125 17.8671875 C36 18 36 18 37 19 C37.07320163 21.5327765 37.09227569 24.03103918 37.0625 26.5625 C37.041875 29.016875 37.02125 31.47125 37 34 C31.06 34 25.12 34 19 34 C19.05236816 35.31081543 19.10473633 36.62163086 19.15869141 37.97216797 C19.34079267 42.87299308 19.45487818 47.77352509 19.54931641 52.67675781 C19.5993606 54.79152841 19.66742293 56.90595725 19.75439453 59.01953125 C20.49824551 77.57204988 20.49824551 77.57204988 16.87011719 82.51416016 C14.37637745 84.99187329 11.85371712 86.96124125 9 89 C7.62358552 90.50332866 6.28174106 92.04018022 5 93.625 C3.375 95.6015625 3.375 95.6015625 2 97 C1.34 97 0.68 97 0 97 C0 76.21 0 55.42 0 34 C-2.64 34 -5.28 34 -8 34 C-8 29.05 -8 24.1 -8 19 C-4 18 -4 18 0 19 C0 12.73 0 6.46 0 0 Z"/>
<path transform="translate(210,137)" fill="#C60474" d="M0 0 C4.62 0 9.24 0 14 0 C15.03876383 3.11629149 15.13361625 5.3594429 15.125 8.625 C15.12886719 10.09839844 15.12886719 10.09839844 15.1328125 11.6015625 C15 14 15 14 14 15 C11.64686445 15.07271741 9.29166332 15.08370868 6.9375 15.0625 C5.64714844 15.05347656 4.35679687 15.04445312 3.02734375 15.03515625 C2.02832031 15.02355469 1.02929688 15.01195312 0 15 C-1.28222659 9.72862401 -0.64238667 5.35322222 0 0 Z"/>
<path transform="translate(469,75)" fill="#AE1A73" d="M0 0 C2.33294775 -0.04241723 4.66702567 -0.04092937 7 0 C8.67335996 1.67335996 8.11962895 3.71387909 8.12442017 5.94747925 C8.12082489 6.6545401 8.11722961 7.36160095 8.11352539 8.09008789 C8.11367142 8.83150528 8.11381744 9.57292267 8.1139679 10.33680725 C8.11326865 12.79878621 8.10547574 15.26069043 8.09765625 17.72265625 C8.09579211 19.42516539 8.09436819 21.12767507 8.09336853 22.83018494 C8.08954302 27.31993073 8.07971247 31.80964438 8.06866455 36.29937744 C8.05845113 40.87731491 8.05387106 45.45525756 8.04882812 50.03320312 C8.03809022 59.02214957 8.02101341 68.01107212 8 77 C5.95920995 77.1968121 3.91729993 77.38202831 1.875 77.5625 C0.16957031 77.71912109 0.16957031 77.71912109 -1.5703125 77.87890625 C-4.88897993 77.99608016 -7.7562686 77.6655072 -11 77 C-10.34 74.69 -9.68 72.38 -9 70 C-8.34 70.33 -7.68 70.66 -7 71 C-7.33 72.32 -7.66 73.64 -8 75 C-7.40832031 74.98839844 -6.81664062 74.97679687 -6.20703125 74.96484375 C-5.41683594 74.95582031 -4.62664062 74.94679688 -3.8125 74.9375 C-3.03519531 74.92589844 -2.25789063 74.91429687 -1.45703125 74.90234375 C1 75 1 75 6 76 C6 51.58 6 27.16 6 2 C3.69 2 1.38 2 -1 2 C-0.67 1.34 -0.34 0.68 0 0 Z"/>
<path transform="translate(384,89)" fill="#AD186C" d="M0 0 C6.11071952 6.3884795 5.28702125 16.56381941 5.23046875 24.78125 C5.22978142 26.42329407 5.22978142 26.42329407 5.2290802 28.09851074 C5.22607626 30.39446101 5.21824623 32.69040957 5.20581055 34.98632812 C5.18741141 38.51699953 5.18530209 42.04741038 5.18554688 45.578125 C5.1806364 47.81250229 5.17481014 50.04687779 5.16796875 52.28125 C5.16685593 53.34154419 5.1657431 54.40183838 5.16459656 55.4942627 C5.15821671 56.46617554 5.15183685 57.43808838 5.14526367 58.43945312 C5.13954597 59.72777039 5.13954597 59.72777039 5.13371277 61.04211426 C5 63 5 63 4 64 C1.13732433 64.07325168 -1.700719 64.09238205 -4.5625 64.0625 C-5.36880859 64.05798828 -6.17511719 64.05347656 -7.00585938 64.04882812 C-9.00393756 64.03700518 -11.00197783 64.01906914 -13 64 C-13.33 63.34 -13.66 62.68 -14 62 C-8.39 62 -2.78 62 3 62 C2.90642534 54.54331678 2.80032097 47.08695669 2.68261719 39.63061523 C2.64434157 37.09420655 2.60948624 34.55774384 2.578125 32.02124023 C2.53244437 28.37464089 2.4744537 24.72841298 2.4140625 21.08203125 C2.40251129 19.94852737 2.39096008 18.8150235 2.37905884 17.64717102 C2.35918915 16.58644882 2.33931946 15.52572662 2.31884766 14.43286133 C2.30552399 13.50242508 2.29220032 12.57198883 2.2784729 11.61335754 C1.97557097 8.77074328 1.07153002 6.63538328 0 4 C0 2.68 0 1.36 0 0 Z"/>
<path transform="translate(132.59765625,121.90234375)" fill="#C10871" d="M0 0 C1.48831242 0.00667405 2.97660807 0.01863442 4.46484375 0.03515625 C5.22345703 0.03966797 5.98207031 0.04417969 6.76367188 0.04882812 C8.64326246 0.06064945 10.52281274 0.07858547 12.40234375 0.09765625 C12.6446875 0.7009375 12.88703125 1.30421875 13.13671875 1.92578125 C15.01913872 6.41462887 16.58394335 9.91565592 20.40234375 13.09765625 C21.06234375 13.75765625 21.72234375 14.41765625 22.40234375 15.09765625 C19.0277166 14.55041942 17.31999375 14.04275625 14.40234375 12.09765625 C13.52684921 9.79261023 12.95134717 7.48210364 12.34375 5.09375 C11.59209847 2.91856159 11.59209847 2.91856159 9.4453125 2.29296875 C7.1851759 2.07689451 5.55300022 2.40637381 3.40234375 3.09765625 C2.39123282 6.14678853 2.39123282 6.14678853 3.40234375 9.09765625 C1.75234375 8.76765625 0.10234375 8.43765625 -1.59765625 8.09765625 C-1.59765625 9.08765625 -1.59765625 10.07765625 -1.59765625 11.09765625 C-0.93765625 11.09765625 -0.27765625 11.09765625 0.40234375 11.09765625 C0.40234375 12.41765625 0.40234375 13.73765625 0.40234375 15.09765625 C1.06234375 15.42765625 1.72234375 15.75765625 2.40234375 16.09765625 C1.74234375 16.75765625 1.08234375 17.41765625 0.40234375 18.09765625 C-2.76734126 12.47402155 -4.66918112 7.63502965 -4.59765625 1.09765625 C-3.59765625 0.09765625 -3.59765625 0.09765625 0 0 Z"/>
<path transform="translate(301,137)" fill="#B81171" d="M0 0 C0.66 0.33 1.32 0.66 2 1 C-5.23847098 9.86657692 -11.42836876 15.13923518 -23 17 C-30.09973539 17.49175656 -36.28801731 17.54872565 -43 15 C-43 14.67 -43 14.34 -43 14 C-41.00045254 13.95745644 -38.99958364 13.95919217 -37 14 C-36.67 14.33 -36.34 14.66 -36 15 C-29.72406781 15.46689461 -23.88608142 15.30324925 -18 13 C-17.67 12.34 -17.34 11.68 -17 11 C-14.525 11.495 -14.525 11.495 -12 12 C-12 11.34 -12 10.68 -12 10 C-11.34 10 -10.68 10 -10 10 C-9.95875 9.2575 -9.9175 8.515 -9.875 7.75 C-8.63175128 3.84264687 -6.55635005 2.84930203 -3 1 C-2.01 1.33 -1.02 1.66 0 2 C0 1.34 0 0.68 0 0 Z"/>
<path transform="translate(128,56)" fill="#B32076" d="M0 0 C0 0.99 0 1.98 0 3 C-4.34285714 7 -4.34285714 7 -7 7 C-7 6.34 -7 5.68 -7 5 C-6.34 4.67 -5.68 4.34 -5 4 C-4.67 3.01 -4.34 2.02 -4 1 C-30.73 1.33 -57.46 1.66 -85 2 C-85 1.34 -85 0.68 -85 0 C-74.21276246 -0.15365972 -63.42546508 -0.30184149 -52.6380558 -0.4429636 C-47.62943009 -0.50866059 -42.62084515 -0.57626875 -37.61230469 -0.64819336 C-32.78187547 -0.71749075 -27.95140369 -0.78183492 -23.12086105 -0.84269524 C-21.27479009 -0.86683424 -19.42874187 -0.89278031 -17.58272171 -0.92053413 C-15.00391448 -0.95900105 -12.42510232 -0.99113352 -9.84619141 -1.02172852 C-8.69281029 -1.04114754 -8.69281029 -1.04114754 -7.51612854 -1.06095886 C-2.22810432 -1.11405216 -2.22810432 -1.11405216 0 0 Z"/>
<path transform="translate(513,92)" fill="#AD136D" d="M0 0 C0.66 0 1.32 0 2 0 C2.07589768 6.2295758 2.12853504 12.45903295 2.16479492 18.68896484 C2.17990645 20.80945288 2.2003964 22.92990954 2.22631836 25.05029297 C2.26259786 28.09350311 2.27970242 31.13630103 2.29296875 34.1796875 C2.30845261 35.13181122 2.32393646 36.08393494 2.33988953 37.06491089 C2.34011612 37.94567291 2.34034271 38.82643494 2.34057617 39.73388672 C2.34723801 40.51110077 2.35389984 41.28831482 2.36076355 42.08908081 C2.24171158 42.71968414 2.12265961 43.35028748 2 44 C1.01 44.66 0.02 45.32 -1 46 C-0.67 30.82 -0.34 15.64 0 0 Z"/>
<path transform="translate(496,57)" fill="#AB166E" d="M0 0 C2.949375 -0.020625 5.89875 -0.04125 8.9375 -0.0625 C9.86812256 -0.071604 10.79874512 -0.08070801 11.75756836 -0.09008789 C12.48596924 -0.09258545 13.21437012 -0.09508301 13.96484375 -0.09765625 C14.7137085 -0.10289307 15.46257324 -0.10812988 16.23413086 -0.11352539 C18 0 18 0 19 1 C19.08631874 2.34267413 19.10706473 3.68974322 19.09765625 5.03515625 C19.09443359 5.84404297 19.09121094 6.65292969 19.08789062 7.48632812 C19.07951172 8.33646484 19.07113281 9.18660156 19.0625 10.0625 C19.05798828 10.91650391 19.05347656 11.77050781 19.04882812 12.65039062 C19.03700373 14.76695663 19.01906769 16.88348685 19 19 C16.15404952 16.15404952 16.54466313 13.19201839 16.375 9.375 C16.25125 6.94125 16.1275 4.5075 16 2 C11.05 2 6.1 2 1 2 C1 7.28 1 12.56 1 18 C0.67 18 0.34 18 0 18 C0 12.06 0 6.12 0 0 Z"/>
<path transform="translate(335,50)" fill="#AE1870" d="M0 0 C0.66 0 1.32 0 2 0 C2.33 9.9 2.66 19.8 3 30 C3.66 30 4.32 30 5 30 C5 30.66 5 31.32 5 32 C3.02 32.495 3.02 32.495 1 33 C-0.38308781 30.23382437 -0.11210196 27.98982 -0.09765625 24.8984375 C-0.09282227 23.08085938 -0.09282227 23.08085938 -0.08789062 21.2265625 C-0.07951172 19.95554687 -0.07113281 18.68453125 -0.0625 17.375 C-0.05798828 16.09625 -0.05347656 14.8175 -0.04882812 13.5 C-0.03701203 10.33328708 -0.02053815 7.16666644 0 4 C-1.32 4.33 -2.64 4.66 -4 5 C-2.71937515 3.2925002 -1.38232443 1.62626404 0 0 Z"/>
<path transform="translate(191,109)" fill="#B21973" d="M0 0 C3.95483075 5.93224612 3.76156541 12.71458107 2.5390625 19.59375 C0.92485336 25.74673542 -1.86332243 30.20734443 -6 35 C-6.93423645 31.98968256 -7.04449911 31.13349732 -6 28 C-4.68 28 -3.36 28 -2 28 C-2 26.35 -2 24.7 -2 23 C-1.34 23 -0.68 23 0 23 C-0.020625 21.989375 -0.04125 20.97875 -0.0625 19.9375 C0 16 0 16 0.5625 12.1875 C1.29048644 9.11040295 1.29048644 9.11040295 0 7 C-0.04022391 4.6670134 -0.04320247 2.33293334 0 0 Z"/>
<path transform="translate(210,137)" fill="#BA2776" d="M0 0 C4.62 0 9.24 0 14 0 C15.03876383 3.11629149 15.13361625 5.3594429 15.125 8.625 C15.12886719 10.09839844 15.12886719 10.09839844 15.1328125 11.6015625 C15 14 15 14 14 15 C11.64686445 15.07271741 9.29166332 15.08370868 6.9375 15.0625 C5.64714844 15.05347656 4.35679687 15.04445312 3.02734375 15.03515625 C2.02832031 15.02355469 1.02929688 15.01195312 0 15 C-1.28222659 9.72862401 -0.64238667 5.35322222 0 0 Z M1 1 C0.979375 2.959375 0.95875 4.91875 0.9375 6.9375 C0.92589844 8.03964844 0.91429687 9.14179688 0.90234375 10.27734375 C0.68737429 12.91447634 0.68737429 12.91447634 2 14 C4.06664006 14.23790731 4.06664006 14.23790731 6.4375 14.25 C7.24058594 14.27578125 8.04367188 14.3015625 8.87109375 14.328125 C9.57363281 14.21984375 10.27617187 14.1115625 11 14 C13.20914 10.68629 13.22481553 9.6553979 13.125 5.8125 C13.08375 4.224375 13.0425 2.63625 13 1 C9.04 1 5.08 1 1 1 Z"/>
<path transform="translate(165,73)" fill="#B21370" d="M0 0 C0.99 0.33 1.98 0.66 3 1 C3 2.32 3 3.64 3 5 C1.9275 5.20625 0.855 5.4125 -0.25 5.625 C-4.82851142 7.30378752 -5.51875807 8.91795682 -8 13 C-9.5390625 14.43359375 -9.5390625 14.43359375 -11.1875 15.75 C-14.02255348 17.69589181 -14.02255348 17.69589181 -15 20 C-15.66 20 -16.32 20 -17 20 C-17.33 20.66 -17.66 21.32 -18 22 C-17.53265037 17.65884121 -14.69093189 15.1348908 -11.8125 12.125 C-11.31580811 11.59487305 -10.81911621 11.06474609 -10.30737305 10.51855469 C-6.94173943 6.94129786 -3.52047134 3.42532347 0 0 Z"/>
<path transform="translate(253,103)" fill="#B6166D" d="M0 0 C1.09471638 3.47782972 1.00496242 6.56154855 0.875 10.1875 C0.81232555 18.16506164 2.50588231 24.36582627 7 31 C5.13671875 30.8046875 5.13671875 30.8046875 3 30 C1.76953125 27.8203125 1.76953125 27.8203125 0.8125 25.125 C0.48894531 24.24070312 0.16539062 23.35640625 -0.16796875 22.4453125 C-1.773575 17.72648849 -2.11875261 13.76705685 -2.0625 8.8125 C-2.05798828 8.06291016 -2.05347656 7.31332031 -2.04882812 6.54101562 C-2.03706354 4.69397617 -2.01912865 2.84697787 -2 1 C-1.34 0.67 -0.68 0.34 0 0 Z"/>
<path transform="translate(286,76)" fill="#B80D70" d="M0 0 C0 0.33 0 0.66 0 1 C-1.58941406 1.09087891 -1.58941406 1.09087891 -3.2109375 1.18359375 C-4.59897221 1.26800127 -5.98699232 1.35264917 -7.375 1.4375 C-8.07367188 1.47681641 -8.77234375 1.51613281 -9.4921875 1.55664062 C-13.37360492 1.74280134 -13.37360492 1.74280134 -17 3 C-17 2.34 -17 1.68 -17 1 C-18.98 1 -20.96 1 -23 1 C-23 0.34 -23 -0.32 -23 -1 C-15.29771283 -3.20317139 -7.60491778 -2.05736906 0 0 Z"/>
<path transform="translate(422,77)" fill="#B21571" d="M0 0 C0 0.66 0 1.32 0 2 C-1.65532623 3.01866229 -3.32260138 4.01810813 -5 5 C-5.33 5.66 -5.66 6.32 -6 7 C-7.11375 7.2784375 -7.11375 7.2784375 -8.25 7.5625 C-12.03520669 9.54113077 -12.99039333 12.23152963 -14.7890625 16.00390625 C-16 18 -16 18 -19 19 C-17.2900141 11.40006266 -12.0900754 6.11677435 -5.6875 2 C-2.33881579 0 -2.33881579 0 0 0 Z"/>
<path transform="translate(252,79)" fill="#B91071" d="M0 0 C0.66 0.33 1.32 0.66 2 1 C-0.64624556 5.21439107 -3.41177137 8.50875053 -7 12 C-7.33 12.66 -7.66 13.32 -8 14 C-9.32 14 -10.64 14 -12 14 C-9.96994153 7.54072306 -5.20907574 4.01842986 0 0 Z"/>
<path transform="translate(143,57)" fill="#B51671" d="M0 0 C0.66 0.33 1.32 0.66 2 1 C1.2884375 1.6496875 1.2884375 1.6496875 0.5625 2.3125 C-1.23686957 4.02309613 -1.23686957 4.02309613 -2 7 C-2.99 7 -3.98 7 -5 7 C-5.33 9.64 -5.66 12.28 -6 15 C-7.98 15 -9.96 15 -12 15 C-12 12 -12 12 -9.375 9.08203125 C-8.25750594 7.98449244 -7.13214357 6.89492105 -6 5.8125 C-5.42765625 5.25369141 -4.8553125 4.69488281 -4.265625 4.11914062 C-2.85037212 2.73926907 -1.42602845 1.36873266 0 0 Z"/>
<path transform="translate(130,122)" fill="#B32277" d="M0 0 C4.95 0 9.9 0 15 0 C15.5775 1.4025 16.155 2.805 16.75 4.25 C18.3618418 7.89093344 19.89874709 10.41562257 23 13 C23.66 13.66 24.32 14.32 25 15 C21.62537285 14.45276317 19.91765 13.9451 17 12 C16.0876203 9.69793085 15.48619785 7.38615272 14.84375 4.99609375 C14.5653125 4.33738281 14.286875 3.67867188 14 3 C10.99221479 1.99740493 8.46179353 1.69685358 5.3125 1.4375 C4.31863281 1.35371094 3.32476562 1.26992187 2.30078125 1.18359375 C1.16189453 1.09271484 1.16189453 1.09271484 0 1 C0 0.67 0 0.34 0 0 Z"/>
<path transform="translate(458,115)" fill="#B61270" d="M0 0 C0.66 0 1.32 0 2 0 C2.69328371 7.51827663 1.67241975 12.02597761 -3 18 C-4.32 17.67 -5.64 17.34 -7 17 C-6.38125 16.278125 -5.7625 15.55625 -5.125 14.8125 C-1.53945089 10.0669203 -0.6904989 5.86924062 0 0 Z"/>
<path transform="translate(401,126)" fill="#B61273" d="M0 0 C1.5 1.375 1.5 1.375 3 3 C3 3.66 3 4.32 3 5 C4.32 5.33 5.64 5.66 7 6 C6.67 7.32 6.34 8.64 6 10 C7.32 10.66 8.64 11.32 10 12 C10 13.65 10 15.3 10 17 C4.63051436 13.62489474 2.25745536 8.75410963 0 3 C0 2.01 0 1.02 0 0 Z"/>
<path transform="translate(238,95)" fill="#B01672" d="M0 0 C0.33 0.99 0.66 1.98 1 3 C0.67 3.66 0.34 4.32 0 5 C-0.18142943 6.87189095 -0.32107503 8.74794444 -0.4375 10.625 C-0.81268785 15.64767606 -1.60618838 20.16811973 -3 25 C-3.33 25 -3.66 25 -4 25 C-4.41038013 16.2908216 -3.96987433 7.93974866 0 0 Z"/>
<path transform="translate(335,54)" fill="#BE0D71" d="M0 0 C0 2 0 2 -1.5 3.625 C-1.995 4.07875 -2.49 4.5325 -3 5 C-2.67 5.99 -2.34 6.98 -2 8 C-6.455 8.495 -6.455 8.495 -11 9 C-8.53449725 4.06899451 -6.02177222 0 0 0 Z"/>
<path transform="translate(451,95)" fill="#C00F73" d="M0 0 C2.475 0.99 2.475 0.99 5 2 C5 2.99 5 3.98 5 5 C6.32 5.33 7.64 5.66 9 6 C9.33 8.31 9.66 10.62 10 13 C9.34 13 8.68 13 8 13 C7.67 13.99 7.34 14.98 7 16 C6.7525 14.80375 6.505 13.6075 6.25 12.375 C5.24632749 8.30254463 3.50084842 5.38824624 1 2 C0.67 1.34 0.34 0.68 0 0 Z"/>
<path transform="translate(180,144)" fill="#AE1370" d="M0 0 C1.32 0.33 2.64 0.66 4 1 C-0.67956762 5.24085816 -5.67127167 7.79195448 -12 8.1875 C-12.66 8.125625 -13.32 8.06375 -14 8 C-13.360625 7.731875 -12.72125 7.46375 -12.0625 7.1875 C-9.66868314 6.11332248 -9.66868314 6.11332248 -9 3 C-5.92382812 2.70703125 -5.92382812 2.70703125 -2.84765625 2.4140625 C-1.93306641 2.20910156 -1.93306641 2.20910156 -1 2 C-0.67 1.34 -0.34 0.68 0 0 Z"/>
<path transform="translate(531,85)" fill="#B21B6F" d="M0 0 C2 3.75 2 3.75 2 6 C-3.94 6 -9.88 6 -16 6 C-16 5.34 -16 4.68 -16 4 C-10.72 4 -5.44 4 0 4 C0 2.68 0 1.36 0 0 Z"/>
<path transform="translate(533,76)" fill="#C40564" d="M0 0 C0 2.64 0 5.28 0 8 C-1.9375 7.6875 -1.9375 7.6875 -4 7 C-4.33 6.01 -4.66 5.02 -5 4 C-4.67 3.34 -4.34 2.68 -4 2 C-6.31 1.67 -8.62 1.34 -11 1 C-11 0.67 -11 0.34 -11 0 C-3.57142857 -1.28571429 -3.57142857 -1.28571429 0 0 Z"/>
<path transform="translate(460,75)" fill="#B80F71" d="M0 0 C2.0625 0.4375 2.0625 0.4375 4 1 C3.01 1.495 3.01 1.495 2 2 C1.34227572 5.02934491 1.34227572 5.02934491 1 8 C1.66 8.33 2.32 8.66 3 9 C2.67 10.32 2.34 11.64 2 13 C0.68 12.67 -0.64 12.34 -2 12 C-1.85962479 10.18706911 -1.71255111 8.3746557 -1.5625 6.5625 C-1.48128906 5.55316406 -1.40007812 4.54382813 -1.31640625 3.50390625 C-1 1 -1 1 0 0 Z"/>
<path transform="translate(448,76)" fill="#AE186F" d="M0 0 C0 0.33 0 0.66 0 1 C-2.33294775 1.04241723 -4.66702567 1.04092937 -7 1 C-7.33 0.67 -7.66 0.34 -8 0 C-12.57529423 -0.15250981 -16.52475994 0.03238053 -21 1 C-22.6662553 1.0370279 -24.33401319 1.04759962 -26 1 C-18.5336643 -3.97755713 -8.15726321 -2.96627753 0 0 Z"/>
<path transform="translate(460,145)" fill="#C10D61" d="M0 0 C0.66 0.33 1.32 0.66 2 1 C1.67 2.32 1.34 3.64 1 5 C1.62648438 4.97679687 2.25296875 4.95359375 2.8984375 4.9296875 C3.71570313 4.91164062 4.53296875 4.89359375 5.375 4.875 C6.18710937 4.85179687 6.99921875 4.82859375 7.8359375 4.8046875 C10 5 10 5 12 7 C7.99047425 8.33650858 4.17983803 8.20225023 0 8 C-0.66 7.34 -1.32 6.68 -2 6 C-1.34 4.02 -0.68 2.04 0 0 Z"/>
<path transform="translate(458,142)" fill="#B71876" d="M0 0 C0.99 0 1.98 0 3 0 C2.67 2.64 2.34 5.28 2 8 C1.67 8 1.34 8 1 8 C1 6.35 1 4.7 1 3 C0.06027344 3.6496875 0.06027344 3.6496875 -0.8984375 4.3125 C-1.71570313 4.869375 -2.53296875 5.42625 -3.375 6 C-4.59316406 6.8353125 -4.59316406 6.8353125 -5.8359375 7.6875 C-8 9 -8 9 -10 9 C-10 8.34 -10 7.68 -10 7 C-9.01 7 -8.02 7 -7 7 C-6.67 6.01 -6.34 5.02 -6 4 C-5.34 4.33 -4.68 4.66 -4 5 C-4 4.34 -4 3.68 -4 3 C-2.68 2.67 -1.36 2.34 0 2 C0 1.34 0 0.68 0 0 Z"/>
<path transform="translate(168,90)" fill="#B5126D" d="M0 0 C11.70615034 3.66970387 11.70615034 3.66970387 16 9 C15.46375 8.71125 14.9275 8.4225 14.375 8.125 C9.89377831 6.00231604 5.99055649 4.70643785 1 5 C0.67 3.35 0.34 1.7 0 0 Z"/>
<path transform="translate(73,72)" fill="#B91678" d="M0 0 C1.65 0 3.3 0 5 0 C5 1.32 5 2.64 5 4 C4.01 4.66 3.02 5.32 2 6 C1.26393501 9.56769552 1.26393501 9.56769552 1 13 C0.67 13 0.34 13 0 13 C0 8.71 0 4.42 0 0 Z"/>
<path transform="translate(286,77)" fill="#B21E6D" d="M0 0 C4.13514614 0.54351832 6.54670918 1.80786095 9.8125 4.375 C10.60269531 4.98085937 11.39289063 5.58671875 12.20703125 6.2109375 C12.79871094 6.80132812 13.39039063 7.39171875 14 8 C14 8.99 14 9.98 14 11 C13.4225 10.360625 12.845 9.72125 12.25 9.0625 C9.93043536 6.93623241 8.93027437 6.68373069 6 6 C5.34 5.01 4.68 4.02 4 3 C1.94996045 1.80767387 1.94996045 1.80767387 0 1 C0 0.67 0 0.34 0 0 Z"/>
<path transform="translate(179,75)" fill="#BA1374" d="M0 0 C0.99 0.33 1.98 0.66 3 1 C1.4169423 5.2742558 -1.50568404 7.26531794 -5 10 C-4.71848913 8.68528432 -4.42446661 7.37324233 -4.125 6.0625 C-3.96257812 5.33160156 -3.80015625 4.60070312 -3.6328125 3.84765625 C-3 2 -3 2 -1 1 C-0.67 0.67 -0.34 0.34 0 0 Z"/>
<path transform="translate(145,146)" fill="#B11A7B" d="M0 0 C0.54269531 0.47308594 1.08539063 0.94617188 1.64453125 1.43359375 C4.39643767 3.26363434 6.43144486 3.61473808 9.6875 4.0625 C12.63671875 4.47265625 12.63671875 4.47265625 15 5 C15.33 5.66 15.66 6.32 16 7 C13.93643105 6.7159949 11.8741715 6.42246648 9.8125 6.125 C8.66394531 5.96257812 7.51539063 5.80015625 6.33203125 5.6328125 C3.31275375 5.05939755 0.79424152 4.25240957 -2 3 C-1.34 2.67 -0.68 2.34 0 2 C0 1.34 0 0.68 0 0 Z"/>
<path transform="translate(417,116)" fill="#B0116E" d="M0 0 C0.33 0 0.66 0 1 0 C1.13277344 0.60328125 1.26554687 1.2065625 1.40234375 1.828125 C1.66724609 3.02695313 1.66724609 3.02695313 1.9375 4.25 C2.11152344 5.03890625 2.28554688 5.8278125 2.46484375 6.640625 C2.947556 8.76878703 3.46163178 10.88532842 4 13 C2.68 12.67 1.36 12.34 0 12 C0 8.04 0 4.08 0 0 Z"/>
<path transform="translate(280,136)" fill="#B52475" d="M0 0 C0.66 0.33 1.32 0.66 2 1 C-1.53186832 3.15059309 -4.66287993 3.3797728 -8.75 3.625 C-9.92046875 3.69976562 -11.0909375 3.77453125 -12.296875 3.8515625 C-13.18890625 3.90054688 -14.0809375 3.94953125 -15 4 C-15.33 3.01 -15.66 2.02 -16 1 C-15.09636719 1.01160156 -14.19273437 1.02320313 -13.26171875 1.03515625 C-11.49248047 1.04869141 -11.49248047 1.04869141 -9.6875 1.0625 C-8.51574219 1.07410156 -7.34398437 1.08570313 -6.13671875 1.09765625 C-2.96940805 1.14899898 -2.96940805 1.14899898 0 0 Z"/>
<path transform="translate(185,99)" fill="#B81471" d="M0 0 C5.57142857 5.14285714 5.57142857 5.14285714 6 9 C4.35 9 2.7 9 1 9 C0.67 6.03 0.34 3.06 0 0 Z"/>
<path transform="translate(42,58)" fill="#B2076C" d="M0 0 C2.46226454 2.46226454 2.69375228 3.5547132 3 7 C2.0625 10.8125 2.0625 10.8125 1 14 C0.67 14 0.34 14 0 14 C0 9.38 0 4.76 0 0 Z"/>
<path transform="translate(210,137)" fill="#A81B6B" d="M0 0 C0.66 0.33 1.32 0.66 2 1 C2 5.62 2 10.24 2 15 C1.01 14.67 0.02 14.34 -1 14 C-0.67 9.38 -0.34 4.76 0 0 Z"/>
<path transform="translate(402,96)" fill="#BC1472" d="M0 0 C0.33 0.99 0.66 1.98 1 3 C1.66 3.33 2.32 3.66 3 4 C2.54625 4.5775 2.0925 5.155 1.625 5.75 C0.15548547 7.78471242 -0.91234415 9.74902529 -2 12 C-1.85831863 10.56208484 -1.71148957 9.1246763 -1.5625 7.6875 C-1.48128906 6.88699219 -1.40007812 6.08648437 -1.31640625 5.26171875 C-1 3 -1 3 0 0 Z"/>
<path transform="translate(414,146)" fill="#AB1B71" d="M0 0 C2.31 0.33 4.62 0.66 7 1 C7 1.99 7 2.98 7 4 C8.32 4.33 9.64 4.66 11 5 C10.01 5.495 10.01 5.495 9 6 C6.8359375 5.00390625 6.8359375 5.00390625 4.375 3.5625 C3.55773437 3.08941406 2.74046875 2.61632812 1.8984375 2.12890625 C1.27195312 1.75636719 0.64546875 1.38382813 0 1 C0 0.67 0 0.34 0 0 Z"/>
<path transform="translate(171,147)" fill="#C1136F" d="M0 0 C1.32 0 2.64 0 4 0 C3.67 1.32 3.34 2.64 3 4 C0.36 4.33 -2.28 4.66 -5 5 C-4.360625 4.731875 -3.72125 4.46375 -3.0625 4.1875 C-0.66868314 3.11332248 -0.66868314 3.11332248 0 0 Z"/>
<path transform="translate(185,137)" fill="#B60E70" d="M0 0 C1.32 0 2.64 0 4 0 C2.75023244 3.65316671 2.32901247 4.78065836 -1 7 C-0.67 4.69 -0.34 2.38 0 0 Z"/>
<path transform="translate(253,123)" fill="#AF1A73" d="M0 0 C1.8258428 1.8258428 2.82300078 3.2754995 4.0625 5.5 C4.40410156 6.1084375 4.74570312 6.716875 5.09765625 7.34375 C5.7549272 8.5501694 6.38559738 9.77119477 7 11 C5.1875 10.875 5.1875 10.875 3 10 C0.71094011 6.32115375 0 4.38448044 0 0 Z"/>
<path transform="translate(301,88)" fill="#B2186D" d="M0 0 C3.0916909 2.52956528 3.90931332 5.22454612 5 9 C4.34 9 3.68 9 3 9 C2.896875 8.360625 2.79375 7.72125 2.6875 7.0625 C2.460625 6.381875 2.23375 5.70125 2 5 C1.01 4.67 0.02 4.34 -1 4 C-0.67 2.68 -0.34 1.36 0 0 Z"/>
<path transform="translate(323,62)" fill="#D20468" d="M0 0 C1.32 0.66 2.64 1.32 4 2 C3.34 3.98 2.68 5.96 2 8 C1.01 7.67 0.02 7.34 -1 7 C-0.34 5.35 0.32 3.7 1 2 C0.34 1.67 -0.32 1.34 -1 1 C-0.67 0.67 -0.34 0.34 0 0 Z"/>
<path transform="translate(258,97)" fill="#BA1268" d="M0 0 C-0.99 1.98 -1.98 3.96 -3 6 C-3.33 5.01 -3.66 4.02 -4 3 C-4.66 3 -5.32 3 -6 3 C-6.33 2.01 -6.66 1.02 -7 0 C-2.25 -1.125 -2.25 -1.125 0 0 Z"/>
<path transform="translate(281,92)" fill="#B51072" d="M0 0 C2.3125 0.125 2.3125 0.125 5 1 C6.8125 4.0625 6.8125 4.0625 8 7 C4.2047869 5.50902342 2.38957269 3.24299151 0 0 Z"/>
<path transform="translate(165,73)" fill="#BE0B6E" d="M0 0 C0.99 0.33 1.98 0.66 3 1 C3 2.32 3 3.64 3 5 C1.35 5 -0.3 5 -2 5 C-1.125 1.125 -1.125 1.125 0 0 Z"/>
<path transform="translate(533,76)" fill="#B51770" d="M0 0 C-0.33 0.99 -0.66 1.98 -1 3 C-4.3 2.34 -7.6 1.68 -11 1 C-11 0.67 -11 0.34 -11 0 C-3.57142857 -1.28571429 -3.57142857 -1.28571429 0 0 Z"/>
<path transform="translate(247,144)" fill="#AD196E" d="M0 0 C2.9375 0.8125 2.9375 0.8125 6 2 C6.33 2.99 6.66 3.98 7 5 C7.66 5 8.32 5 9 5 C8.67 5.66 8.34 6.32 8 7 C6.66382648 6.02471263 5.3311249 5.04466681 4 4.0625 C3.2575 3.51722656 2.515 2.97195312 1.75 2.41015625 C1.1725 1.94480469 0.595 1.47945312 0 1 C0 0.67 0 0.34 0 0 Z"/>
<path transform="translate(497,144)" fill="#C10C73" d="M0 0 C0.33 1.32 0.66 2.64 1 4 C2.65 4 4.3 4 6 4 C4.60804085 6.7839183 2.84424221 6.97898997 0 8 C0 5.36 0 2.72 0 0 Z"/>
<path transform="translate(260,134)" fill="#BB0F72" d="M0 0 C2.99324263 1.0975223 3.84610901 1.67682892 5.25 4.625 C5.4975 5.40875 5.745 6.1925 6 7 C4.68 7.33 3.36 7.66 2 8 C2.33 6.35 2.66 4.7 3 3 C2.01 3 1.02 3 0 3 C0 2.01 0 1.02 0 0 Z"/>
<path transform="translate(451,95)" fill="#B21A71" d="M0 0 C3.26941682 0.94641013 4.66822278 1.41184947 6.375 4.4375 C7 7 7 7 6 10 C5.18639005 8.70903219 4.37414954 7.41720125 3.5625 6.125 C2.88380859 5.04605469 2.88380859 5.04605469 2.19140625 3.9453125 C1 2 1 2 0 0 Z"/>
<path transform="translate(130,132)" fill="#B61170" d="M0 0 C0.99 0.33 1.98 0.66 3 1 C3 2.32 3 3.64 3 5 C3.66 5.33 4.32 5.66 5 6 C4.34 6.66 3.68 7.32 3 8 C0 3.375 0 3.375 0 0 Z"/>
</svg>